<svg xmlns="http://www.w3.org/2000/svg" version="1.1" viewBox="-5.0 -10.0 110.0 110.0">
 <path d="m23.453 37.137c0-1.1328 0.91797-2.0547 2.0547-2.0547 1.1328 0 2.0547 0.92188 2.0547 2.0547v49.793c-0.015625 0.42969 0.31641 0.78906 0.74609 0.80469h43.707-0.003906c0.42969-0.015625 0.76172-0.375 0.74609-0.80469v-49.793c0-1.1328 0.92188-2.0547 2.0547-2.0547 1.1367 0 2.0547 0.92188 2.0547 2.0547v49.727c0.050781 2.6719-2.0508 4.8906-4.7227 4.9805h-43.965c-2.668-0.089844-4.7734-2.3086-4.7188-4.9805z" stroke="currentColor" stroke-width="4" fill="none"/>
 <path d="m40.836 10.055c0.058593 0.54297-0.10547 1.0859-0.44922 1.5078s-0.84375 0.69141-1.3828 0.74609l-13.906 1.4141-20.602 10.039h-0.003906c-0.33984 0.16797-0.48047 0.57422-0.31641 0.91406l7.7969 16.008c0.14453 0.29297 0.47656 0.44531 0.79297 0.36328l0.125-0.046875 11.391-5.5508c1.0234-0.49609 2.2539-0.070313 2.75 0.94922 0.49609 1.0195 0.070312 2.25-0.94922 2.75l-11.391 5.5508-0.21484 0.097656h-0.003906c-2.3477 1.0039-5.0742-0.011719-6.1914-2.3086l-7.7969-16.008h-0.003906c-1.1562-2.3789-0.16797-5.25 2.2109-6.4062l20.93-10.199 0.68359-0.19531 14.27-1.4531h0.003906c0.54297-0.058593 1.0859 0.10156 1.5078 0.44531 0.42578 0.34375 0.69531 0.83984 0.75 1.3828z" stroke="currentColor" stroke-width="4" fill="none"/>
 <path d="m88.023 40.441 7.7969-16.008v0.003906c0.082032-0.16406 0.09375-0.35156 0.03125-0.52344-0.058593-0.17187-0.18359-0.3125-0.34375-0.39453l-20.582-10.027-15.266-1.2344-0.003906 0.003907c-0.54688-0.039063-1.0547-0.29297-1.4141-0.71094-0.35938-0.41406-0.53516-0.95703-0.49219-1.5039 0.046875-0.54688 0.30859-1.0547 0.72656-1.4102 0.42188-0.35156 0.96484-0.52344 1.5117-0.46875l15.652 1.2656 0.73438 0.20312 20.93 10.195v-0.003906c1.1445 0.55859 2.0195 1.5469 2.4336 2.75 0.41406 1.1992 0.33594 2.5195-0.22266 3.6602l-7.7969 16.008c-1.1602 2.3789-4.0312 3.3672-6.4102 2.207l-11.395-5.5508v0.003906c-1.0195-0.5-1.4453-1.7305-0.94922-2.75 0.5-1.0234 1.7305-1.4453 2.75-0.94922l11.395 5.5508c0.16016 0.078126 0.35156 0.089844 0.52344 0.03125 0.17188-0.058593 0.3125-0.18359 0.39063-0.34766z" stroke="currentColor" stroke-width="4" fill="none"/>
 <path d="m37.023 10.242c0-1.1328 0.91797-2.0547 2.0547-2.0547 1.1328 0 2.0508 0.92188 2.0508 2.0547 0 4.6094 3.7383 8.3438 8.3438 8.3438 4.6094 0 8.3438-3.7344 8.3438-8.3438 0-1.1328 0.92188-2.0547 2.0547-2.0547 1.1367 0 2.0547 0.92188 2.0547 2.0547 0 6.8789-5.5742 12.453-12.453 12.453-6.875 0-12.449-5.5742-12.449-12.453z" stroke="currentColor" stroke-width="4" fill="none"/>
</svg>
