<svg width="160" height="27" viewBox="0 0 160 27" fill="none" xmlns="http://www.w3.org/2000/svg">
<path d="M39.0802 13.4556C39.0802 10.4733 36.9848 8.66821 34.3381 8.66821C31.7486 8.68332 29.4731 10.7182 29.4731 13.6703C29.4731 16.576 31.6612 18.4577 34.4147 18.4577C35.9436 18.4577 37.52 17.8761 38.4371 16.7443L36.7852 15.5671C36.2037 16.071 35.4085 16.331 34.5367 16.331C33.1599 16.331 32.1198 15.6427 31.8295 14.3738H39.0489C39.0802 14.0199 39.0802 13.7135 39.0802 13.4556ZM31.8781 12.6733C32.1845 11.3786 33.148 10.7312 34.3716 10.7312C35.6415 10.7312 36.5435 11.4196 36.6968 12.6733H31.8781ZM47.4152 9.00485V9.92305C46.7732 9.18935 45.7331 8.80632 44.6164 8.80632C42.0463 8.80632 39.8743 10.8413 39.8743 13.6552C39.8743 16.4238 41.9082 18.3368 44.325 18.3368C45.855 18.3368 46.8488 17.7973 47.4152 16.9601V18.107H49.5872V9.00161L47.4152 9.00485ZM44.6638 16.2685C43.1803 16.2685 42.1099 15.0287 42.1099 13.5451C42.1099 12.0918 43.1803 10.8682 44.6638 10.8682C46.1474 10.8682 47.2954 11.985 47.2954 13.5451C47.2954 15.074 46.2283 16.2685 44.6638 16.2685ZM52.5252 15.4733C52.8316 16.0127 53.5502 16.467 54.5137 16.467C55.5236 16.467 56.1656 16.085 56.1656 15.5035C56.1656 14.964 55.7071 14.7687 54.8353 14.5853L53.5405 14.3101C51.3373 13.8203 50.7568 12.7499 50.7568 11.603C50.7568 10.0428 52.3623 8.77287 54.5806 8.77287C56.1408 8.77287 57.7927 9.46125 58.206 11.098L56.2627 11.5566C55.9876 10.975 55.3143 10.6697 54.5806 10.6697C53.6937 10.6697 53.0053 11.0214 53.0053 11.5566C53.0053 12.0616 53.4941 12.2914 54.3055 12.4748L55.5592 12.7348C57.8542 13.1934 58.466 14.1569 58.466 15.3351C58.466 17.3388 56.6156 18.3638 54.3659 18.3638C52.5446 18.3638 50.924 17.5222 50.5895 15.9156L52.5252 15.4733ZM60.9843 8.99945L63.358 15.3654L65.8817 9.0178H68.2393L64.5373 17.9355C63.8651 19.5107 63.3602 20.2455 62.8239 20.8109C62.4513 21.1953 62.004 21.4994 61.5095 21.7047C61.015 21.9099 60.4838 22.0118 59.9485 22.0042C59.5724 22.0166 59.1964 21.9755 58.8318 21.8823V19.9704C59.1717 20.0157 59.5139 20.0412 59.8568 20.047C60.8667 20.047 61.5831 19.4352 62.0438 18.3951L62.1204 18.2106L58.452 9.00269L60.9843 8.99945ZM68.6784 11.0495V9.0178H70.3152V8.45134C70.3152 6.24917 71.7071 4.59619 74.4153 4.59619C74.6753 4.59619 75.1803 4.61238 75.409 4.64259V6.69262H74.6904C73.1302 6.69262 72.5487 7.3195 72.5487 8.41897V8.99945H74.5372V11.0495H72.5487V18.1167H70.3001V11.0517H68.6816L68.6784 11.0495ZM75.4403 8.99945H77.6889V13.9249C77.6889 15.4538 78.3157 16.1908 79.5706 16.1908C80.8254 16.1908 81.9109 15.2877 81.9109 13.4826V9.00269H84.1594V18.1189H81.9864V16.9255C81.3746 17.8891 80.1209 18.3487 79.0807 18.3487C76.7405 18.3487 75.4403 16.987 75.4403 14.3403V9.00269V8.99945ZM85.5664 8.96817H87.7384V10.195C88.3501 9.23143 89.605 8.77287 90.6451 8.77287C92.9854 8.77287 94.2855 10.1345 94.2855 12.7802V18.0887H92.037V13.1934C92.037 11.6634 91.409 10.9276 90.1553 10.9276C88.9015 10.9276 87.815 11.8296 87.815 13.6347V18.1016H85.5664V8.9714V8.96817ZM102.79 4.8573V9.85831C102.148 9.16993 101.153 8.81603 100.069 8.81603C97.4987 8.80093 95.3213 10.8359 95.3213 13.6498C95.3213 16.4346 97.3563 18.3465 99.7883 18.3465C101.317 18.3465 102.312 17.8071 102.877 16.9698V18.1167H105.035V4.8573H102.79ZM100.129 16.2685C98.6446 16.2685 97.5742 15.0287 97.5742 13.5451C97.5742 12.0918 98.6446 10.8682 100.129 10.8682C101.614 10.8682 102.76 11.985 102.76 13.5451C102.76 15.074 101.687 16.2685 100.129 16.2685ZM106.844 9.00269H109.017V10.2565C109.689 9.15483 110.837 8.80308 111.724 8.80308C112.244 8.79853 112.758 8.91917 113.222 9.15483L112.427 11.1132C112.112 10.985 111.774 10.9226 111.434 10.9297C110.164 10.9297 109.093 11.8328 109.093 13.6369V18.1038H106.844V9.00269ZM120.305 9.00269V9.92089C119.657 9.18719 118.623 8.80416 117.506 8.80416C114.936 8.80416 112.764 10.8693 112.764 13.653C112.764 16.4368 114.799 18.3498 117.231 18.3498C118.76 18.3498 119.755 17.8103 120.32 16.973V18.12H122.478V9.00161L120.305 9.00269ZM117.567 16.2695C116.084 16.2695 115.012 15.0298 115.012 13.5462C115.012 12.0929 116.083 10.8693 117.567 10.8693C119.052 10.8693 120.198 11.986 120.198 13.5462C120.198 15.074 119.128 16.2685 117.567 16.2685V16.2695ZM125.384 4.6728C126.195 4.6728 126.837 5.23926 126.837 6.04956C126.837 6.81455 126.195 7.42632 125.384 7.42632C124.588 7.42632 123.9 6.81455 123.9 6.04956C123.9 5.23926 124.588 4.6728 125.384 4.6728ZM124.267 9.00269H126.515V18.1038H124.267V9.00269ZM129.392 15.4765C129.697 16.016 130.416 16.4702 131.379 16.4702C132.389 16.4702 133.032 16.0883 133.032 15.5067C133.032 14.9672 132.574 14.7719 131.701 14.5885L130.401 14.3134C128.199 13.8235 127.617 12.7532 127.617 11.6062C127.617 10.0461 129.224 8.77611 131.441 8.77611C133.001 8.77611 134.653 9.46449 135.066 11.1013L133.124 11.5598C132.848 10.9783 132.176 10.6729 131.441 10.6729C130.554 10.6729 129.866 11.0247 129.866 11.5598C129.866 12.0648 130.355 12.2946 131.16 12.478L132.415 12.7381C134.709 13.1966 135.321 14.1602 135.321 15.3384C135.321 17.342 133.47 18.367 131.221 18.367C129.401 18.367 127.779 17.5255 127.444 15.9189L129.392 15.4765ZM137.545 4.67604C138.355 4.67604 138.998 5.24249 138.998 6.0528C138.998 6.81778 138.351 7.42956 137.545 7.42956C136.739 7.42956 136.061 6.81778 136.061 6.0528C136.061 5.23926 136.733 4.6728 137.545 4.6728V4.67604ZM136.398 9.00269H138.663V18.1038H136.398V9.00269ZM140.451 8.9714H142.623V10.195C143.235 9.23143 144.489 8.77287 145.529 8.77287C147.87 8.77287 149.169 10.1345 149.169 12.7802V18.0887H146.921V13.1934C146.921 11.6634 146.294 10.9276 145.04 10.9276C143.786 10.9276 142.7 11.8296 142.7 13.6347V18.1016H140.451V8.9714ZM157.813 9.00161V9.91981C157.166 9.18612 156.13 8.80308 155.008 8.80308C152.407 8.80308 150.267 10.838 150.267 13.652C150.267 16.4659 152.331 18.3487 154.732 18.3487C156.231 18.3487 157.226 17.8437 157.792 17.0173V17.0637C157.792 19.6942 156.599 20.6242 154.839 20.6242C154.341 20.6302 153.849 20.5183 153.403 20.2978C152.956 20.0773 152.568 19.7544 152.27 19.3554L150.465 20.4257C151.337 21.8791 153.096 22.6743 154.824 22.6743C156.706 22.6743 158.19 22.0161 159.076 20.6091C159.689 19.7222 159.995 18.4372 159.995 16.7087V9.00161H157.813ZM155.059 16.2685C153.606 16.2685 152.504 15.0287 152.504 13.5451C152.504 12.0918 153.576 10.8682 155.059 10.8682C156.543 10.8682 157.686 11.985 157.686 13.5451C157.686 15.074 156.62 16.2685 155.059 16.2685Z" fill="#0C4758"/>
<path d="M0.205004 15.6232L0.408928 16.5177L8.15483 14.7503C8.05527 14.4603 7.98691 14.1604 7.95091 13.8559L0.205004 15.6232Z" fill="#FFD44A"/>
<path d="M24.267 11.0721L24.0631 10.1777L16.3183 11.945C16.4175 12.2347 16.4855 12.5342 16.5211 12.8384L24.267 11.0721Z" fill="#FFD44A"/>
<path d="M1.01315 18.244L1.41129 19.0662L8.57239 15.6232C8.4106 15.3625 8.27679 15.0855 8.17317 14.7967L1.01315 18.244Z" fill="#FFD44A"/>
<path d="M23.4621 8.45133L23.0618 7.62915L15.9029 11.0721C16.0651 11.3326 16.1989 11.6097 16.3021 11.8986L23.4621 8.45133Z" fill="#FFD44A"/>
<path d="M22.0875 6.07652L21.52 5.36332L15.3051 10.3136C15.5203 10.5315 15.7116 10.7717 15.8759 11.0301L22.0875 6.07652Z" fill="#FFD44A"/>
<path d="M2.38452 20.6188L2.96176 21.332L9.17338 16.3774C8.9573 16.1597 8.76555 15.9191 8.60152 15.6599L2.38452 20.6188Z" fill="#FFD44A"/>
<path d="M4.25005 22.6268L4.96648 23.1976L9.92002 16.9849C9.66148 16.8203 9.42098 16.629 9.20251 16.4141L4.25005 22.6268Z" fill="#FFD44A"/>
<path d="M20.2252 4.06856L19.5088 3.49779L14.552 9.70724C14.8106 9.87179 15.0511 10.0631 15.2695 10.278L20.2252 4.06856Z" fill="#FFD44A"/>
<path d="M6.51588 24.174L7.34237 24.5689L10.7875 17.41C10.499 17.3088 10.2223 17.1767 9.9621 17.0162L6.51588 24.174Z" fill="#FFD44A"/>
<path d="M17.9594 2.52132L17.1297 2.12642L13.6845 9.28213C13.9719 9.38487 14.2476 9.51797 14.5067 9.67919L17.9594 2.52132Z" fill="#FFD44A"/>
<path d="M9.06872 25.1753L9.96318 25.3792L11.7294 17.6333C11.4249 17.5973 11.125 17.529 10.835 17.4294L9.06872 25.1753Z" fill="#FFD44A"/>
<path d="M15.4033 1.52004L14.5067 1.31612L12.7426 9.06202C13.0472 9.09802 13.347 9.16638 13.6371 9.26595L15.4033 1.52004Z" fill="#FFD44A"/>
<path d="M12.693 9.05555V1.11111H11.7758V9.05663C11.9303 9.04005 12.0855 9.03177 12.2409 9.03181C12.3919 9.03222 12.5428 9.04014 12.693 9.05555Z" fill="#FFD44A"/>
<path d="M11.7791 17.6387V25.5842H12.6962V17.6398C12.545 17.6557 12.393 17.6637 12.2409 17.6635C12.0866 17.6636 11.9325 17.6554 11.7791 17.6387Z" fill="#FFD44A"/>
<path d="M14.5164 25.3782L15.4098 25.1742L13.6435 17.4294C13.3536 17.5291 13.0537 17.5972 12.7491 17.6323L14.5164 25.3782Z" fill="#FFD44A"/>
<path d="M9.95563 1.3172L9.06224 1.52112L10.8382 9.26595C11.1282 9.16621 11.4281 9.09819 11.7327 9.0631L9.95563 1.3172Z" fill="#FFD44A"/>
<path d="M17.1362 24.5689L17.9626 24.1708L14.5099 17.014C14.25 17.1764 13.9732 17.3103 13.6845 17.4132L17.1362 24.5689Z" fill="#FFD44A"/>
<path d="M7.3359 2.12642L6.50941 2.52456L9.95994 9.67919C10.2199 9.51678 10.4966 9.38293 10.7854 9.27997L7.3359 2.12642Z" fill="#FFD44A"/>
<path d="M19.511 23.1965L20.2252 22.6268L15.2695 16.4173C15.0511 16.6326 14.8106 16.8243 14.552 16.9892L19.511 23.1965Z" fill="#FFD44A"/>
<path d="M4.96109 3.49887L4.24466 4.06856L9.20035 10.2802C9.4188 10.0649 9.6593 9.87324 9.91786 9.70832L4.96109 3.49887Z" fill="#FFD44A"/>
<path d="M2.95097 5.36332L2.3802 6.08084L8.59397 11.0322C8.75861 10.7738 8.95031 10.5336 9.16582 10.3158L2.95097 5.36332Z" fill="#FFD44A"/>
<path d="M21.52 21.332L22.0908 20.6145L15.877 15.6642C15.7127 15.9229 15.521 16.1631 15.3051 16.3807L21.52 21.332Z" fill="#FFD44A"/>
<path d="M1.40805 7.62915L1.00991 8.45564L8.16994 11.8986C8.27425 11.6103 8.40917 11.3339 8.57239 11.0743L1.40805 7.62915Z" fill="#FFD44A"/>
<path d="M0.406771 10.1852L0.202846 11.0818L7.95091 12.846C7.98554 12.5392 8.05356 12.2371 8.15375 11.945L0.406771 10.1852Z" fill="#FFD44A"/>
<path d="M24.472 12.8891H0V13.8062H24.472V12.8891Z" fill="#FFD44A"/>
</svg>
