<svg width="102" height="65" viewBox="0 0 102 65" fill="none" xmlns="http://www.w3.org/2000/svg">
    <g clip-path="url(#clip0_101_3)">
        <path
            d="M101.075 51.964C101.275 54.764 99.175 57.364 96.375 57.564L29.275 63.464C26.475 63.664 23.875 61.564 23.675 58.764L21.575 35.564C21.375 32.764 23.475 30.164 26.275 29.964L93.375 24.064C96.175 23.864 98.775 25.964 98.975 28.764L101.075 51.964Z"
            fill="#E1001D" />
        <path
            d="M28.775 64.064C25.775 64.064 23.275 61.764 22.975 58.764L20.975 35.564C20.675 32.364 23.075 29.564 26.275 29.264L93.375 23.364C96.575 23.064 99.375 25.464 99.675 28.664L101.675 51.864C101.975 55.064 99.575 57.864 96.375 58.164L29.275 64.064C29.175 64.064 28.975 64.064 28.775 64.064ZM93.875 24.664C93.775 24.664 93.575 24.664 93.475 24.664L26.375 30.564C23.875 30.764 21.975 32.964 22.175 35.464L24.175 58.664C24.375 61.164 26.575 63.064 29.075 62.864L96.175 56.964C98.675 56.764 100.575 54.564 100.375 52.064L98.375 28.864C98.175 26.464 96.175 24.664 93.875 24.664Z"
            fill="#010305" />
        <path
            d="M52.904 33.277C52.904 33.177 53.004 33.077 53.104 33.077H53.304C53.404 33.077 53.504 33.077 53.504 33.177L57.204 38.677L59.804 32.577C59.804 32.477 59.904 32.477 60.004 32.377H60.204C60.304 32.377 60.404 32.477 60.504 32.577L62.904 41.577C62.904 41.677 62.904 41.877 62.704 41.877C62.704 41.877 62.704 41.877 62.604 41.877L61.004 41.977C60.904 41.977 60.804 41.877 60.704 41.777L59.704 37.677L57.804 42.277C57.804 42.377 57.704 42.377 57.604 42.477H57.404C57.304 42.477 57.204 42.477 57.204 42.377L54.504 38.177L54.304 42.377C54.304 42.477 54.204 42.577 54.104 42.577L52.504 42.677C52.304 42.777 52.204 42.677 52.204 42.577C52.204 42.577 52.204 42.577 52.204 42.477L52.904 33.277Z"
            fill="white" />
        <path
            d="M65.337 36.876L62.037 32.776C61.937 32.676 61.937 32.476 62.037 32.476L62.137 32.376L63.837 32.276C63.937 32.276 64.037 32.276 64.037 32.376L66.037 34.876L67.637 32.076C67.637 31.976 67.737 31.976 67.837 31.976L69.537 31.876C69.637 31.876 69.837 31.976 69.837 32.076C69.837 32.176 69.837 32.176 69.837 32.276L67.337 36.876L67.737 40.876C67.737 40.976 67.637 41.176 67.537 41.176L65.937 41.276C65.837 41.276 65.637 41.176 65.637 41.076L65.337 36.876Z"
            fill="white" />
        <path
            d="M27.893 49.089C27.893 48.989 27.993 48.789 28.093 48.789H28.393L34.193 53.489L33.893 48.689C33.893 48.589 33.993 48.389 34.093 48.389L35.693 48.289C35.793 48.289 35.993 48.389 35.993 48.489L36.793 57.589C36.793 57.689 36.693 57.889 36.593 57.889H36.393C36.293 57.889 36.293 57.889 36.193 57.789L30.393 52.889L30.793 57.889C30.793 57.989 30.693 58.189 30.593 58.189L28.993 58.389C28.893 58.389 28.693 58.289 28.693 58.189L27.893 49.089Z"
            fill="white" />
        <path
            d="M37.868 57.229L41.268 47.829C41.268 47.729 41.368 47.629 41.468 47.629H41.568C41.668 47.629 41.768 47.629 41.768 47.729L46.768 56.429C46.868 56.529 46.768 56.729 46.668 56.729H46.568L45.068 56.829C44.868 56.829 44.668 56.729 44.568 56.529L43.968 55.529L40.268 55.829L39.868 56.929C39.768 57.129 39.668 57.329 39.368 57.329L37.868 57.429C37.768 57.429 37.668 57.329 37.568 57.229C37.868 57.329 37.868 57.229 37.868 57.229ZM43.168 53.829L41.968 51.729L41.168 54.029L43.168 53.829Z"
            fill="white" />
        <path
            d="M48.115 47.215C48.115 47.115 48.215 47.015 48.315 47.015H48.515C48.615 47.015 48.715 47.015 48.715 47.115L52.415 52.615L55.015 46.515C55.015 46.415 55.115 46.415 55.215 46.315H55.415C55.515 46.315 55.615 46.415 55.715 46.515L58.115 55.515C58.115 55.615 58.115 55.815 57.915 55.815C57.915 55.815 57.915 55.815 57.815 55.815L56.215 55.915C56.115 55.915 56.015 55.815 55.915 55.715L54.915 51.615L53.015 56.215C53.015 56.315 52.915 56.315 52.815 56.415H52.615C52.515 56.415 52.415 56.415 52.415 56.315L49.715 52.115L49.515 56.315C49.515 56.415 49.415 56.515 49.315 56.515L47.715 56.615C47.515 56.715 47.415 56.615 47.415 56.515C47.415 56.515 47.415 56.515 47.415 56.415L48.115 47.215Z"
            fill="white" />
        <path
            d="M59.052 46.439C59.052 46.339 59.152 46.139 59.252 46.139L64.852 45.639C64.952 45.639 65.152 45.739 65.152 45.839L65.252 47.339C65.252 47.439 65.152 47.639 65.052 47.639L61.352 47.939L61.452 49.639L64.552 49.339C64.652 49.339 64.852 49.439 64.852 49.539L64.952 51.039C64.952 51.139 64.852 51.339 64.752 51.339L61.652 51.639L61.852 53.439L65.552 53.139C65.652 53.139 65.852 53.239 65.852 53.339L65.952 54.839C65.952 54.939 65.852 55.139 65.752 55.139L60.152 55.639C60.052 55.639 59.852 55.539 59.852 55.439L59.052 46.439Z"
            fill="white" />
        <path
            d="M68.276 47.402L66.376 47.602C66.276 47.602 66.076 47.502 66.076 47.402L65.976 45.902C65.976 45.802 66.076 45.602 66.176 45.602L72.176 45.102C72.276 45.102 72.476 45.202 72.476 45.302L72.576 46.802C72.576 46.902 72.476 47.102 72.376 47.102L70.476 47.202L71.076 54.402C71.076 54.502 70.976 54.702 70.876 54.702L69.276 54.802C69.176 54.802 68.976 54.702 68.976 54.602L68.276 47.402Z"
            fill="white" />
        <path
            d="M72.867 54.169L76.267 44.769C76.267 44.669 76.367 44.569 76.467 44.569H76.567C76.667 44.569 76.767 44.569 76.767 44.669L81.767 53.369C81.867 53.469 81.767 53.669 81.667 53.669H81.567L80.067 53.769C79.867 53.769 79.667 53.669 79.567 53.469L78.967 52.469L75.267 52.769L74.867 53.869C74.767 54.069 74.667 54.269 74.367 54.269L72.867 54.369C72.767 54.369 72.667 54.269 72.567 54.169C72.867 54.269 72.867 54.169 72.867 54.169ZM78.167 50.769L76.967 48.669L76.167 50.969L78.167 50.769Z"
            fill="white" />
        <path
            d="M86.25 43.727C87.45 43.627 88.65 44.027 89.65 44.727C89.75 44.827 89.85 44.927 89.75 45.027L88.75 46.227C88.65 46.327 88.55 46.327 88.35 46.227C87.85 45.827 87.15 45.627 86.55 45.727C85.05 45.827 83.95 47.227 84.15 48.727C84.25 50.227 85.55 51.327 87.05 51.127C87.45 51.127 87.85 51.027 88.25 50.827L88.15 50.027L87.35 50.127C87.25 50.127 87.05 50.027 87.05 49.927L86.95 48.627C86.95 48.527 87.05 48.327 87.15 48.327L89.85 48.127C89.95 48.127 90.15 48.227 90.15 48.327L90.45 51.927C90.45 52.027 90.45 52.127 90.35 52.127C89.35 52.827 88.25 53.227 87.05 53.327C84.35 53.627 82.05 51.627 81.75 49.027C81.45 46.327 83.45 44.027 86.05 43.727C86.15 43.727 86.25 43.727 86.25 43.727Z"
            fill="white" />
        <path
            d="M91.788 51.539L92.288 50.339C92.388 50.139 92.588 50.139 92.788 50.239C93.388 50.639 94.088 50.839 94.788 50.839C95.288 50.839 95.688 50.439 95.688 50.039C95.688 50.039 95.688 50.039 95.688 49.939C95.688 49.339 95.088 48.939 94.188 48.739C92.988 48.339 91.488 47.639 91.288 46.039C91.188 44.539 92.388 43.139 93.888 43.139C93.988 43.139 94.088 43.139 94.088 43.139C95.088 43.039 96.188 43.339 97.088 43.939C97.188 44.039 97.288 44.239 97.188 44.339L96.588 45.439C96.488 45.639 96.288 45.739 96.188 45.639C95.588 45.239 94.888 45.039 94.188 45.039C93.788 45.039 93.388 45.339 93.388 45.839C93.388 46.339 93.888 46.639 94.988 47.039C96.088 47.339 97.788 48.039 97.988 49.839C98.088 51.439 96.788 52.839 95.088 52.939C95.088 52.939 95.088 52.939 94.988 52.939C93.888 53.139 92.788 52.839 91.888 52.139C91.688 51.839 91.688 51.739 91.788 51.539Z"
            fill="white" />
        <path
            d="M60.842 27.41C61.142 28.01 63.942 29.11 64.942 25.91C65.442 23.61 64.742 21.21 63.042 19.51C60.942 17.41 55.642 16.41 51.842 18.01C48.442 19.61 46.942 23.71 48.542 27.11L53.142 26.71"
            fill="#FBD54C" />
        <path
            d="M55.7 18C57 18 58.2 18.1 59.4 18.5C60 18.7 60.5 18.9 61.1 19.1C61.2 19.2 61.3 19.2 61.5 19.3C61.6 19.4 61.7 19.4 61.8 19.5C61.9 19.6 62 19.6 62.1 19.7C62.2 19.8 62.3 19.9 62.4 20L62.5 20.1L62.6 20.2C62.7 20.3 62.8 20.4 62.9 20.5C63.1 20.7 63.2 20.9 63.4 21.1C63.7 21.5 63.9 22 64.1 22.5C64.4 23.4 64.5 24.3 64.5 25.2C64.4 25.9 64.1 26.6 63.7 27.2C63.3 27.6 62.8 27.8 62.3 27.8C61.9 27.8 61.6 27.7 61.2 27.6C61 27.5 60.9 27.4 60.8 27.4C60.7 27.4 60.7 27.6 60.9 27.8C61.2 28.1 61.5 28.3 61.9 28.3C62.5 28.5 63.2 28.4 63.8 28.1C64.6 27.6 65.1 26.9 65.4 26.1C65.6 25.6 65.6 25.1 65.7 24.6C65.7 24.1 65.7 23.5 65.6 23C65.4 21.8 64.8 20.6 64 19.6C63.9 19.5 63.8 19.3 63.7 19.2H63.5L63.4 19.1L63.2 18.9L63 18.7C62.9 18.6 62.8 18.6 62.8 18.5C62.6 18.4 62.5 18.3 62.3 18.2C61.7 17.8 61 17.5 60.3 17.3C59.6 17.1 58.8 16.9 58.1 16.8C57.3 16.6 56.5 16.6 55.7 16.6C54.9 16.6 54 16.7 53.2 16.9C52.8 17 52.4 17.1 52 17.3C51.8 17.4 51.6 17.4 51.4 17.5L51.2 17.6L51.1 17.7L51 17.8C50.6 18 50.3 18.2 50 18.5C49.8 18.6 49.6 18.7 49.5 18.8C49.4 18.9 49.3 19.1 49.1 19.2C48.6 19.7 48.3 20.3 48 21C47.5 22.1 47.2 23.4 47.3 24.6C47.4 25.6 47.6 26.6 48.1 27.5L48.3 27.8H48.6C51.6 27.4 53.1 27.1 53.1 26.9C53.1 26.7 51.3 26.6 48.5 26.8L49 27.1C48.6 26.3 48.5 25.4 48.5 24.5C48.5 23.4 48.8 22.4 49.4 21.5C49.7 21 50 20.5 50.5 20.1C50.9 19.7 51.4 19.3 51.9 19C53 18.3 54.3 18 55.7 18Z"
            fill="#1D1F20" />
        <path d="M61.479 22.612C63.579 26.612 59.779 30.712 56.579 28.012Z" fill="#FBD54C" />
        <path
            d="M61.688 28.101C62.188 27.501 62.488 26.701 62.688 25.901C62.788 25.301 62.688 24.601 62.588 24.001C62.488 23.601 62.288 23.201 61.988 22.901C61.788 22.701 61.588 22.601 61.488 22.601C61.388 22.601 61.388 22.801 61.388 23.101C61.388 23.201 61.388 23.401 61.388 23.501C61.388 23.601 61.388 23.901 61.488 24.101C61.488 24.601 61.488 25.101 61.388 25.601C61.288 26.201 60.988 26.801 60.588 27.301C60.188 27.801 59.688 28.101 59.188 28.301C58.788 28.401 58.288 28.401 57.888 28.301C57.188 28.201 56.688 27.901 56.588 28.101C56.488 28.201 56.788 28.801 57.688 29.301C58.288 29.601 58.988 29.601 59.588 29.501C60.488 29.201 61.188 28.701 61.688 28.101Z"
            fill="#1D1F20" />
        <path d="M56.553 24.17C57.853 27.37 56.353 29.27 54.353 29.07C51.253 28.77 52.353 25.77 50.253 25.57"
            fill="#FBD54C" />
        <path
            d="M54.708 29.764C55.208 29.764 55.808 29.564 56.208 29.364C56.608 29.064 57.008 28.764 57.208 28.264C57.608 27.564 57.708 26.764 57.508 25.964C57.408 25.464 57.208 24.964 57.008 24.564C56.808 24.264 56.708 24.164 56.608 24.164C56.408 24.264 56.508 24.864 56.508 25.864C56.508 26.464 56.408 26.964 56.208 27.464C55.908 28.064 55.308 28.364 54.708 28.364C54.008 28.364 53.408 28.164 52.908 27.664C52.508 27.264 52.308 26.564 51.908 26.064C51.708 25.864 51.508 25.664 51.308 25.464C51.108 25.364 50.908 25.264 50.708 25.264C50.408 25.264 50.208 25.364 50.208 25.464C50.208 25.564 50.308 25.664 50.508 25.864C50.808 26.064 51.008 26.364 51.008 26.764C51.108 26.964 51.208 27.264 51.308 27.564C51.408 27.964 51.608 28.264 51.908 28.664C52.208 29.064 52.608 29.364 53.108 29.564C53.208 29.564 53.408 29.664 53.508 29.664C53.608 29.664 53.608 29.664 53.708 29.664H53.908H54.108H54.208H54.308L54.708 29.764Z"
            fill="#1D1F20" />
        <path
            d="M54.381 21.295C48.581 19.495 46.581 15.495 43.381 11.995C45.281 11.095 48.381 9.19499 48.181 6.79499C47.981 3.09499 41.581 -0.705014 37.581 1.29499C34.981 2.59499 35.381 5.09499 35.981 6.89499C33.181 6.09499 30.281 5.89499 27.481 6.29499C24.481 6.79499 22.581 6.39499 20.681 3.89499C20.281 4.79499 19.881 6.69499 20.281 7.59499C18.681 7.19499 16.781 7.79499 15.781 9.19499C16.581 9.09499 17.381 9.09499 18.081 9.29499C15.381 10.795 12.981 12.795 11.181 15.295C10.581 13.495 9.28101 11.295 6.38101 11.895C1.98101 12.795 -0.618995 19.795 1.38101 22.795C2.78101 24.895 6.381 24.295 8.481 23.795C8.081 28.695 8.781 33.495 5.481 38.095C6.081 37.595 7.881 37.195 8.481 36.695C7.981 38.395 8.481 40.195 9.681 41.395C9.881 40.895 9.981 40.395 9.981 39.995C11.481 40.995 12.981 41.795 14.681 42.495C18.881 45.395 25.981 46.595 31.981 44.795C33.081 45.095 34.181 45.095 35.181 44.595C36.281 44.295 37.281 43.695 37.881 42.695C43.781 40.395 48.681 35.195 50.081 30.195C50.881 28.695 51.681 27.095 52.181 25.395C52.481 25.795 52.881 26.095 53.281 26.395C53.381 24.695 52.681 22.995 51.281 21.895C51.981 21.995 53.681 21.095 54.381 21.295Z"
            fill="#FBD54C" />
        <path
            d="M9.556 21.09C9.956 18.89 10.956 16.79 12.256 14.99C13.456 13.49 14.756 12.19 16.356 11.09C17.656 10.09 18.756 9.38998 19.556 8.88998C20.356 8.38998 20.756 8.08998 20.756 7.98998C20.656 7.88998 20.256 7.98998 19.556 8.28998C19.356 8.38998 19.156 8.48998 18.956 8.58998C18.756 8.68998 18.456 8.78998 18.156 8.98998C17.856 9.18998 17.556 9.28998 17.256 9.38998L16.256 9.98998C14.556 10.99 13.056 12.29 11.656 13.69C10.856 14.59 10.056 15.69 9.45601 16.79C8.85601 18.09 8.356 19.39 8.056 20.79C7.756 22.19 7.65601 23.59 7.65601 24.89C7.55601 26.19 7.556 27.39 7.556 28.49C7.556 29.59 7.45601 30.59 7.35601 31.49C7.25601 31.89 7.25601 32.39 7.15601 32.79C7.15601 32.99 7.056 33.19 7.056 33.39C7.056 33.59 6.95601 33.79 6.95601 33.89C6.25601 36.69 5.25601 37.89 5.45601 38.09C5.55601 38.19 5.95601 37.79 6.45601 37.09C7.15601 35.99 7.756 34.89 8.056 33.59C8.556 31.79 8.85601 29.89 8.85601 27.89C8.95601 25.69 9.156 23.39 9.556 21.09Z"
            fill="#1D1F20" />
        <path
            d="M23.343 9.03198C21.243 7.63198 18.143 6.33198 15.743 9.23198C17.343 8.83198 19.143 9.53198 20.043 10.932L23.343 9.03198Z"
            fill="#FBD54C" />
        <path
            d="M22.392 44.795C21.592 44.695 20.792 44.495 19.992 44.295C19.292 44.095 18.492 43.895 17.792 43.595C16.592 43.095 15.392 42.495 14.392 41.695C12.592 40.295 11.792 39.095 11.592 39.195C11.492 39.295 11.592 39.595 11.792 40.095C12.192 40.895 12.692 41.595 13.392 42.195C15.892 44.395 18.892 45.795 22.192 46.195C23.992 46.495 25.792 46.595 27.692 46.395C28.992 46.295 30.292 45.995 31.592 45.595C33.592 44.895 34.492 44.195 34.392 43.995C34.292 43.795 33.092 44.295 30.892 44.695C28.092 45.195 25.192 45.195 22.392 44.795Z"
            fill="#1D1F20" />
        <path
            d="M38.323 7.02798C37.423 6.62798 36.523 6.22798 35.623 6.02798C35.123 5.92798 34.723 5.82798 34.223 5.72798C33.723 5.62798 33.323 5.52798 32.823 5.52798C31.923 5.42798 31.023 5.42798 30.123 5.42798C29.723 5.42798 29.223 5.42798 28.823 5.52798C28.423 5.52798 28.023 5.62798 27.623 5.62798H27.323H27.023C26.823 5.62798 26.623 5.72798 26.523 5.72798C26.223 5.72798 25.823 5.82798 25.523 5.82798C24.923 5.82798 24.223 5.72798 23.623 5.52798C22.623 5.12798 21.723 4.42798 21.023 3.52798L20.523 2.92798L20.323 3.62798C19.923 4.62798 19.823 5.62798 19.923 6.62798C19.923 6.92798 20.023 7.22798 20.223 7.42798C20.323 7.62798 20.423 7.62798 20.423 7.62798C20.423 7.62798 20.423 7.52798 20.423 7.32798C20.423 7.12798 20.423 6.82798 20.423 6.62798C20.523 5.72798 20.723 4.72798 21.123 3.92798L20.423 4.22798C21.123 5.22798 22.023 6.02798 23.023 6.52798C23.723 6.82798 24.423 7.02798 25.123 7.02798C25.923 7.02798 26.723 7.02798 27.423 6.92798H27.523H27.623H27.923H28.523C28.923 6.92798 29.323 6.92798 29.723 6.82798C29.923 6.82798 30.123 6.82798 30.323 6.82798C30.523 6.82798 30.723 6.82798 30.923 6.82798C31.123 6.82798 31.323 6.82798 31.523 6.82798C31.723 6.82798 31.923 6.82798 32.223 6.92798C34.123 7.02798 35.923 7.52798 37.623 8.32798C39.023 9.02798 40.323 9.92798 41.523 11.028C42.523 12.028 43.523 13.028 44.423 14.128C45.323 15.128 46.123 16.128 46.923 16.928C47.623 17.728 48.423 18.428 49.223 19.028C50.323 19.928 51.623 20.628 52.923 21.028C53.223 21.128 53.623 21.228 53.923 21.228C54.123 21.228 54.323 21.228 54.323 21.228C54.323 21.228 54.223 21.128 53.923 20.928C53.823 20.828 53.623 20.828 53.423 20.728C53.223 20.628 53.223 20.528 52.923 20.428C51.623 19.728 50.423 18.828 49.323 17.828C48.623 17.128 47.823 16.328 47.223 15.528C46.523 14.628 45.723 13.728 44.923 12.728C44.023 11.628 43.123 10.628 42.123 9.62798C41.023 8.62798 39.723 7.72798 38.323 7.02798Z"
            fill="#1D1F20" />
        <path
            d="M9.583 40.707C8.783 39.607 8.58301 38.207 8.88301 36.907L9.18301 35.707L8.283 36.507C8.083 36.607 7.983 36.707 7.783 36.807L7.18301 37.107C6.88301 37.207 6.583 37.407 6.283 37.607C6.083 37.707 5.88301 37.807 5.68301 38.007C5.48301 38.007 5.48301 38.107 5.48301 38.107C5.48301 38.107 5.58301 38.107 5.68301 38.107C5.78301 38.107 5.983 38.007 6.283 37.907C6.583 37.807 6.883 37.707 7.283 37.607C7.483 37.507 7.68301 37.507 7.88301 37.407C8.18301 37.307 8.38301 37.207 8.68301 37.007L8.083 36.607C7.883 37.307 7.78301 38.007 7.88301 38.707C7.98301 39.807 8.483 40.907 9.283 41.707L9.783 42.307L9.98301 41.507C10.183 41.007 10.283 40.507 10.283 39.907L9.583 40.207C10.683 40.907 11.783 41.607 12.983 42.107C13.783 42.407 14.283 42.507 14.283 42.407C14.383 42.207 12.483 41.207 10.083 39.507L9.48301 39.007V40.007C9.48301 40.507 9.38301 40.907 9.18301 41.307L9.98301 41.107C9.78301 41.007 9.683 40.807 9.583 40.707Z"
            fill="#1D1F20" />
        <path
            d="M46.207 37.936C46.807 37.336 47.407 36.636 47.907 35.936C48.407 35.236 48.807 34.536 49.207 33.836C49.907 32.636 50.307 31.236 50.607 29.836C50.807 28.936 50.807 27.936 50.707 26.936C50.707 26.636 50.607 26.436 50.507 26.136C50.407 25.936 50.407 25.936 50.307 25.936C50.207 25.936 50.207 26.236 50.107 26.836C50.007 27.636 49.907 28.436 49.707 29.236C48.907 32.136 47.307 34.836 45.207 37.036C44.007 38.336 42.707 39.436 41.307 40.436C40.307 41.136 39.207 41.736 38.107 42.336C36.207 43.036 35.207 43.336 35.207 43.636C35.207 43.836 36.607 43.836 38.807 43.036C41.607 41.836 44.107 40.136 46.207 37.936Z"
            fill="#1D1F20" />
        <path
            d="M53.769 25.781C53.669 24.181 52.869 22.681 51.569 21.781L51.369 22.481C51.669 22.481 51.869 22.381 52.169 22.281C52.369 22.181 52.569 22.181 52.769 22.081C53.169 21.981 53.469 21.781 53.769 21.681L54.369 21.481C54.469 21.381 54.569 21.381 54.569 21.381C54.569 21.381 54.469 21.281 54.369 21.281C54.169 21.281 53.969 21.281 53.669 21.281C53.369 21.281 53.069 21.381 52.669 21.481C52.469 21.481 52.269 21.581 52.069 21.581C51.869 21.581 51.669 21.681 51.469 21.681H50.269L51.169 22.481C52.169 23.381 52.869 24.581 52.969 25.981C52.969 26.181 52.969 26.381 52.969 26.581L53.669 26.281C53.269 25.981 52.969 25.781 52.669 25.381L52.069 24.781L51.869 25.581C51.369 27.181 50.969 28.381 50.669 29.181C50.369 29.981 50.069 30.281 50.169 30.281C50.369 30.381 51.569 28.581 52.569 25.581L51.769 25.781C52.169 26.181 52.569 26.481 52.969 26.781L53.669 27.281L53.769 26.481C53.769 26.281 53.769 25.981 53.769 25.781Z"
            fill="#1D1F20" />
        <path
            d="M17.545 8.86698C16.545 8.66698 15.645 8.96698 15.745 9.16698C15.745 9.26698 15.945 9.36698 16.245 9.36698C16.545 9.36698 16.945 9.46698 17.445 9.46698C18.445 9.66698 18.945 9.96698 19.045 9.76698C19.145 9.66698 19.045 9.46698 18.745 9.26698C18.445 9.16698 18.045 8.96698 17.545 8.86698Z"
            fill="#1D1F20" />
        <path
            d="M18.597 7.97098C19.297 7.87098 20.097 7.97098 20.797 8.07098C21.397 8.17098 21.797 8.27098 21.797 8.07098C21.797 7.87098 21.597 7.67098 21.097 7.37098C20.297 6.97098 19.397 6.77098 18.497 6.97098C17.997 7.07098 17.497 7.27098 16.997 7.47098C16.697 7.67098 16.397 7.87098 16.197 8.17098C15.997 8.37098 15.897 8.57098 15.797 8.77098C15.697 9.07098 15.697 9.17098 15.697 9.17098C15.697 9.17098 15.897 9.17098 15.997 9.07098C16.097 9.07098 16.197 8.97098 16.197 8.87098C16.197 8.77098 16.397 8.77098 16.497 8.67098C17.197 8.37098 17.897 8.17098 18.597 7.97098Z"
            fill="#1D1F20" />
        <path
            d="M9.88101 23.495C9.88101 23.495 3.38101 25.795 1.38101 22.795C-0.718994 19.795 1.98101 12.795 6.38101 11.895C11.181 10.995 11.781 17.595 11.781 17.595"
            fill="#FBD54C" />
        <path
            d="M1 15.868C0.500004 16.868 0.200004 17.968 3.61726e-06 19.168C-0.0999964 20.168 5.126e-06 21.368 0.400005 22.368C0.500005 22.468 0.500002 22.668 0.600002 22.768C0.700002 22.868 0.700003 22.968 0.800003 23.068C1 23.368 1.10001 23.568 1.40001 23.768C1.80001 24.068 2.2 24.368 2.7 24.568C3.5 24.868 4.4 24.968 5.3 24.868C6.5 24.768 7.7 24.568 8.8 24.168C9.6 23.868 10 23.668 10 23.568C10 23.468 9.60001 23.468 8.90001 23.568C7.90001 23.768 6.9 23.868 5.8 23.868C5.1 23.868 4.4 23.768 3.7 23.668C3 23.468 2.30001 23.068 1.90001 22.368C1.50001 21.568 1.3 20.568 1.5 19.668C1.6 18.568 1.90001 17.468 2.40001 16.468C2.90001 15.468 3.5 14.568 4.3 13.868C5 13.268 5.8 12.868 6.7 12.668C7.4 12.468 8.20001 12.568 8.90001 12.968C9.50001 13.268 9.9 13.768 10.3 14.268C10.8 15.068 11.2 15.968 11.5 16.768C11.7 17.368 11.8 17.668 11.9 17.668C12 17.668 12.1 17.268 12 16.468C11.9 15.968 11.8 15.468 11.7 15.068C11.5 14.468 11.2 13.868 10.9 13.268C10.4 12.568 9.8 11.968 9 11.568C8 11.168 7 11.168 6 11.468C5 11.768 4 12.368 3.2 13.068C2.2 13.868 1.5 14.768 1 15.868Z"
            fill="#1D1F20" />
        <path
            d="M7.62 19.306C8.42 19.306 9.02 19.606 9.12 19.406C9.12 19.306 9.12 19.206 8.82 19.006C8.42 18.806 8.02 18.706 7.62 18.606C7.22 18.606 6.82 18.606 6.42 18.806C6.22 18.906 6.12 19.106 6.12 19.206C6.22 19.506 6.82 19.306 7.62 19.306Z"
            fill="#1D1F20" />
        <path
            d="M8.323 17.196C8.023 16.796 7.623 16.496 7.123 16.196C6.523 15.896 5.923 15.896 5.323 16.096C5.223 16.196 5.123 16.196 5.023 16.296C4.823 16.496 4.823 16.496 4.823 16.596C4.923 16.696 5.223 16.596 5.723 16.696C6.023 16.696 6.323 16.796 6.623 16.896C7.023 17.096 7.323 17.396 7.623 17.696C8.123 18.296 8.523 18.996 8.823 19.696C9.123 20.196 9.323 20.396 9.423 20.396C9.523 20.396 9.623 19.996 9.423 19.296C9.223 18.596 8.823 17.796 8.323 17.196Z"
            fill="#1D1F20" />
        <path
            d="M41.974 12.495C41.974 12.495 48.574 10.295 48.274 6.69498C48.074 2.99498 41.674 -0.80502 37.674 1.19498C33.374 3.39498 36.974 8.99498 36.974 8.99498"
            fill="#FBD54C" />
        <path
            d="M43.621 2.19999C44.521 2.59999 45.321 3.19999 46.021 3.89999C46.721 4.49999 47.221 5.29999 47.521 6.09999C47.521 6.19999 47.521 6.29999 47.621 6.39999C47.621 6.49999 47.621 6.59999 47.721 6.69999C47.721 6.89999 47.721 6.99999 47.721 7.19999C47.721 7.59999 47.521 7.89999 47.321 8.19999C46.921 8.79999 46.421 9.39999 45.921 9.79999C45.021 10.5 44.121 11.1 43.121 11.7C42.321 12.1 41.921 12.4 41.921 12.5C41.921 12.6 42.321 12.6 43.021 12.4C44.021 12.1 45.021 11.6 45.921 11C46.621 10.6 47.221 9.99999 47.821 9.39999C48.121 8.99999 48.421 8.59999 48.621 8.09999C48.821 7.59999 48.921 6.99999 48.921 6.39999C48.721 5.19999 48.221 4.09999 47.321 3.19999C46.421 2.29999 45.421 1.49999 44.221 0.899989C43.121 0.299989 41.821 -1.09617e-05 40.521 -0.100011C39.321 -0.200011 38.221 0.0999888 37.121 0.599989C37.021 0.699989 36.921 0.699989 36.821 0.799989C36.721 0.899989 36.621 0.999988 36.521 0.999988C36.321 1.19999 36.121 1.29999 35.921 1.49999C35.621 1.89999 35.321 2.29999 35.121 2.79999C34.821 3.59999 34.821 4.39999 34.921 5.19999C35.021 5.79999 35.221 6.39999 35.421 6.89999C35.621 7.29999 35.821 7.69999 36.021 7.99999C36.421 8.59999 36.621 8.79999 36.721 8.79999C36.821 8.79999 36.621 8.29999 36.421 7.59999C36.321 7.19999 36.121 6.69999 36.021 6.29999C36.021 5.99999 35.921 5.39999 35.921 4.79999C35.921 4.09999 36.121 3.49999 36.421 2.89999C36.821 2.29999 37.421 1.79999 38.221 1.59999C39.021 1.29999 39.921 1.19999 40.821 1.29999C41.721 1.49999 42.721 1.79999 43.621 2.19999Z"
            fill="#1D1F20" />
        <path
            d="M40.833 7.25299C40.133 7.85299 39.933 8.65299 40.133 8.75299C40.333 8.85299 40.633 8.35299 41.233 7.75299C41.533 7.55299 41.733 7.35299 42.033 7.15299C42.233 7.05299 42.333 6.95299 42.333 6.85299C42.333 6.75299 42.133 6.75299 41.833 6.75299C41.433 6.85299 41.033 7.05299 40.833 7.25299Z"
            fill="#1D1F20" />
        <path
            d="M40.202 6.53299C40.202 6.13299 40.302 5.73299 40.402 5.33299C40.502 5.03299 40.702 4.83299 40.902 4.53299C41.002 4.43299 41.102 4.33299 41.202 4.33299C41.302 4.23299 41.402 4.23299 41.402 4.13299C41.602 4.03299 41.602 3.93299 41.602 3.83299C41.602 3.73299 41.502 3.73299 41.302 3.73299C41.002 3.73299 40.802 3.83299 40.502 3.93299C40.102 4.13299 39.802 4.43299 39.502 4.83299C39.402 5.33299 39.302 5.93299 39.302 6.53299C39.302 7.43299 39.502 8.33299 39.902 9.13299C40.202 9.63299 40.402 9.93299 40.502 9.83299C40.602 9.73299 40.602 9.43299 40.502 8.83299C40.302 8.03299 40.302 7.33299 40.202 6.53299Z"
            fill="#1D1F20" />
        <path d="M30.029 43.355C30.629 44.255 32.129 45.855 35.129 44.655C38.129 43.755 38.429 41.655 38.329 40.455"
            fill="#FBD54C" />
        <path
            d="M34.952 43.951L34.852 44.051C34.252 44.251 33.652 44.451 32.952 44.451C32.452 44.451 31.952 44.351 31.452 44.151C30.652 43.751 30.152 43.251 29.952 43.351C29.852 43.451 29.852 43.551 29.952 43.851C30.152 44.251 30.352 44.551 30.652 44.851C31.352 45.351 31.952 45.651 32.652 45.751C33.552 45.851 34.452 45.751 35.352 45.351C36.252 45.051 37.052 44.651 37.652 43.951C38.152 43.451 38.452 42.851 38.552 42.151C38.652 41.751 38.652 41.351 38.452 40.951C38.352 40.651 38.252 40.551 38.152 40.551C37.952 40.551 37.852 41.151 37.452 41.951C37.252 42.351 36.952 42.751 36.552 43.151C36.152 43.551 35.652 43.851 34.952 43.951Z"
            fill="#1D1F20" />
        <path
            d="M29.062 27.169C28.062 27.469 27.462 28.069 27.562 28.269C27.662 28.469 28.262 28.169 29.262 27.869C30.262 27.569 30.862 27.469 30.862 27.269C30.762 26.969 30.062 26.869 29.062 27.169Z"
            fill="#1D1F20" />
        <path
            d="M28.59 38.905C29.69 39.505 30.09 41.905 31.49 41.705C33.09 41.505 34.59 41.005 35.99 40.205C37.19 39.505 36.09 37.405 36.59 36.205H36.49C34.39 36.905 31.89 35.505 31.09 33.105C31.99 35.405 30.89 37.905 28.59 38.905Z"
            fill="#A36E31" />
        <path
            d="M35.169 36.374C34.569 36.574 34.069 36.874 33.669 37.374C31.469 37.274 29.169 39.674 30.269 41.074C30.569 41.474 30.969 41.674 31.469 41.674C33.069 41.474 34.569 40.974 35.969 40.174C37.169 39.474 36.069 37.374 36.569 36.174C36.469 36.174 36.469 36.274 36.369 36.274C36.069 36.374 35.669 36.374 35.169 36.374Z"
            fill="#E1001D" />
        <path
            d="M31.115 33.326C30.115 33.626 27.015 32.926 26.615 31.826C26.215 30.726 27.515 29.326 29.515 28.626C31.515 27.926 33.315 28.326 33.715 29.326C34.115 30.326 32.115 33.026 31.115 33.326Z"
            fill="#010305" />
        <path
            d="M31.752 29.129C31.852 29.429 31.152 30.029 30.052 30.329C28.952 30.629 28.052 30.729 27.952 30.329C27.852 29.929 28.552 29.429 29.652 29.129C30.752 28.829 31.652 28.829 31.752 29.129Z"
            fill="white" />
        <path
            d="M33.822 40.679C33.422 40.879 32.922 40.979 32.522 41.079C32.322 41.179 32.122 41.179 31.922 41.179C31.822 41.179 31.722 41.179 31.622 41.279H31.522H31.422C31.122 41.179 30.822 41.079 30.722 40.779C30.522 40.479 30.322 40.279 30.122 39.979C29.822 39.479 29.422 39.079 28.922 38.779C28.822 38.679 28.622 38.679 28.422 38.679C28.322 38.679 28.222 38.679 28.222 38.779C28.222 38.879 28.222 38.879 28.322 38.879L28.422 38.979L28.522 39.079C28.822 39.379 29.122 39.779 29.322 40.179C29.522 40.479 29.622 40.779 29.822 41.079C29.922 41.279 30.122 41.479 30.222 41.579C30.422 41.779 30.622 41.979 30.922 42.079C31.022 42.179 31.222 42.179 31.422 42.179H31.622H31.822C32.122 42.179 32.322 42.079 32.622 42.079C33.022 41.879 33.622 41.779 34.122 41.579C34.622 41.379 35.122 41.179 35.622 40.879C35.722 40.779 35.822 40.779 35.922 40.679L36.122 40.579H36.222H36.322C36.522 40.379 36.722 40.179 36.822 39.879C36.922 39.479 37.022 38.979 36.922 38.579C36.922 38.179 36.822 37.879 36.822 37.579C36.722 37.179 36.722 36.779 36.822 36.379C36.822 36.279 36.822 36.179 36.922 36.079C36.922 35.979 36.922 35.979 36.922 35.879C36.922 35.779 36.822 35.879 36.722 35.879C36.622 35.979 36.522 36.079 36.422 36.179C36.222 36.679 36.122 37.179 36.222 37.779C36.222 38.079 36.222 38.479 36.222 38.779C36.222 39.079 36.122 39.379 36.022 39.679C36.022 39.679 36.022 39.779 35.922 39.779L35.822 39.879H35.722C35.522 39.979 35.322 40.079 35.122 40.179C34.722 40.379 34.222 40.579 33.822 40.679Z"
            fill="#1D1F20" />
        <path
            d="M33.861 37.726C34.261 37.226 34.761 36.826 35.261 36.626C35.661 36.426 36.061 36.326 35.961 36.226C35.961 36.226 35.861 36.126 35.761 36.126C35.661 36.126 35.561 36.126 35.561 36.126C35.461 36.126 35.361 36.126 35.161 36.126C34.361 36.326 33.761 36.726 33.261 37.326C32.961 37.726 32.761 38.126 32.761 38.526C32.661 38.826 32.761 39.226 32.861 39.526C32.961 39.726 33.061 39.926 33.161 40.026C33.261 40.126 33.361 40.126 33.361 40.126C33.461 40.026 33.261 39.826 33.261 39.326C33.261 38.726 33.461 38.226 33.861 37.726Z"
            fill="#1D1F20" />
        <path
            d="M31.224 38.695C31.724 38.195 32.324 37.895 32.924 37.695C33.424 37.495 33.824 37.495 33.824 37.395C33.824 37.395 33.724 37.295 33.624 37.295C33.524 37.295 33.424 37.295 33.324 37.195H32.924C32.124 37.295 31.324 37.595 30.724 38.195C30.024 38.695 29.724 39.595 29.824 40.395C29.824 40.495 29.924 40.595 29.924 40.795C29.924 40.895 30.024 40.995 30.124 40.995C30.224 41.095 30.324 41.095 30.324 41.095C30.424 40.995 30.224 40.695 30.324 40.295C30.324 40.195 30.324 40.095 30.424 39.895C30.424 39.795 30.524 39.595 30.624 39.495C30.724 39.195 30.924 38.895 31.224 38.695Z"
            fill="#1D1F20" />
        <path
            d="M27.748 39.42C28.048 39.42 28.348 39.42 28.748 39.32H28.848L29.148 39.22C29.248 39.12 29.448 39.12 29.548 39.02C30.048 38.72 30.448 38.42 30.748 37.92C31.248 37.22 31.648 36.32 31.648 35.42C31.648 34.82 31.548 34.22 31.348 33.62C31.148 33.22 31.048 33.02 30.948 33.02C30.848 33.02 30.848 33.22 30.948 33.62C30.948 34.12 30.948 34.62 30.948 35.12C30.848 35.92 30.548 36.62 30.148 37.22C29.848 37.62 29.548 37.92 29.148 38.12C29.048 38.22 28.948 38.22 28.848 38.32C28.748 38.42 28.648 38.42 28.548 38.42C28.448 38.42 28.348 38.52 28.248 38.52C28.148 38.52 27.948 38.52 27.848 38.52C26.848 38.42 25.948 37.92 25.248 37.22C24.748 36.72 24.548 36.12 24.548 35.42C24.648 35.02 24.848 34.62 25.048 34.22C25.248 33.92 25.348 33.82 25.248 33.72C25.148 33.62 24.948 33.72 24.648 34.02C24.148 34.42 23.848 34.92 23.748 35.52C23.648 36.42 23.948 37.42 24.648 38.02C25.548 38.82 26.648 39.32 27.748 39.42Z"
            fill="#1D1F20" />
        <path
            d="M36.936 35.342C36.736 35.442 36.636 35.642 36.436 35.742H36.336H36.136C36.036 35.742 35.936 35.842 35.836 35.842C35.436 35.942 34.936 35.942 34.536 35.842C33.836 35.642 33.136 35.342 32.536 34.742C32.136 34.342 31.836 33.942 31.536 33.542C31.336 33.242 31.236 33.042 31.136 33.042C31.036 33.042 31.036 33.242 31.136 33.642C31.336 34.142 31.536 34.642 31.936 35.042C32.536 35.742 33.236 36.342 34.136 36.642C34.736 36.842 35.236 36.942 35.836 36.842C36.036 36.842 36.136 36.842 36.336 36.742C36.536 36.742 36.636 36.642 36.836 36.642C37.036 36.542 37.136 36.542 37.336 36.442C37.436 36.342 37.636 36.242 37.736 36.142C38.236 35.742 38.536 35.142 38.836 34.542C39.036 34.042 39.136 33.442 39.236 32.942C39.236 32.442 39.136 31.942 38.936 31.442C38.736 31.042 38.536 30.742 38.136 30.442C37.736 30.142 37.136 29.942 36.636 29.942C36.336 29.942 36.136 30.042 36.136 30.042C36.136 30.042 36.336 30.142 36.636 30.342C37.136 30.442 37.536 30.742 37.836 31.142C38.236 31.742 38.436 32.442 38.236 33.042C38.036 33.942 37.636 34.742 36.936 35.342Z"
            fill="#1D1F20" />
        <path
            d="M24.239 25.593C24.539 26.493 24.739 27.393 24.739 28.293C24.739 29.893 20.939 31.793 20.039 31.093C19.039 30.293 18.239 29.193 17.839 27.993C16.839 25.293 17.539 22.593 19.239 21.893C20.939 21.193 23.239 22.893 24.239 25.593Z"
            fill="white" />
        <path
            d="M20.539 31.593C20.239 31.593 20.039 31.493 19.839 31.393C18.739 30.593 17.939 29.393 17.539 28.093C16.539 25.193 17.239 22.293 19.139 21.593C21.039 20.893 23.539 22.693 24.539 25.493C24.839 26.393 25.039 27.393 25.039 28.293C25.039 29.393 23.639 30.393 22.539 30.993C21.939 31.293 21.239 31.493 20.539 31.593ZM20.039 22.093C19.839 22.093 19.539 22.093 19.339 22.193C17.739 22.793 17.139 25.393 18.039 27.893C18.439 29.093 19.139 30.093 20.139 30.893C20.339 31.093 21.139 30.993 22.239 30.493C23.539 29.893 24.339 28.993 24.439 28.293C24.439 27.393 24.339 26.593 24.039 25.693C23.139 23.493 21.539 22.093 20.039 22.093Z"
            fill="#010305" />
        <path
            d="M24.226 26.227C23.126 24.427 21.226 23.527 20.026 24.327C18.826 25.127 18.626 27.127 19.626 28.927C20.126 29.827 20.926 30.527 21.926 30.927C23.226 30.427 24.726 29.327 24.726 28.327C24.726 27.927 24.726 27.527 24.626 27.027C24.526 26.727 24.326 26.427 24.226 26.227Z"
            fill="#010305" />
        <path
            d="M20.467 25.484C20.667 26.084 20.367 26.784 19.767 26.984C19.167 27.184 18.467 26.884 18.267 26.284C18.067 25.684 18.367 24.984 18.967 24.784C19.567 24.584 20.267 24.884 20.467 25.484Z"
            fill="white" />
        <path
            d="M36.3586 23.1813C36.9192 23.021 37.5505 22.9831 38.1301 23.1384C38.6389 23.1712 38.9994 23.3713 39.1478 23.204C39.1737 23.1074 39.2254 22.9142 39.1288 22.8883C38.9874 22.6434 38.8201 22.495 38.6528 22.3467C38.2923 22.1466 37.9318 21.9464 37.5455 21.8429C37.0625 21.7135 36.4312 21.7514 35.9931 21.8411C35.1168 22.0204 34.3561 22.5412 33.8592 23.2363C33.7109 23.4036 33.6332 23.6934 33.5815 23.8866C33.5556 23.9832 33.6263 24.1057 33.697 24.2281C34.0316 24.5248 35.0183 23.5469 36.3586 23.1813Z"
            fill="#1D1F20" />
        <path
            d="M39.297 21.1711C39.4362 22.1096 39.4769 23.0306 39.3206 23.9169C39.0427 25.4926 34.9705 26.7039 34.2058 25.8583C33.3599 24.8968 32.763 23.6746 32.5775 22.4233C32.0615 19.5907 33.2198 17.0533 35.0155 16.6591C36.8112 16.2649 38.7811 18.3385 39.297 21.1711Z"
            fill="white" />
        <path
            d="M34.6113 26.4375C34.3159 26.3854 34.1363 26.2522 33.9567 26.119C33.0123 25.1401 32.4329 23.8194 32.2647 22.4697C31.7835 19.4401 32.9764 16.7057 34.9691 16.3463C36.9618 15.9869 39.1112 18.1936 39.6098 21.1248C39.749 22.0632 39.7723 23.0827 39.616 23.969C39.425 25.0523 37.8726 25.794 36.6851 26.1939C36.0422 26.3852 35.3181 26.4606 34.6113 26.4375ZM35.7686 16.995C35.5716 16.9603 35.2762 16.9082 35.0619 16.9719C33.382 17.285 32.3396 19.7413 32.7918 22.3596C32.9774 23.6108 33.4931 24.7172 34.339 25.6787C34.5012 25.9104 35.3064 25.9508 36.4765 25.6494C37.861 25.2843 38.8051 24.5369 39.0251 23.8649C39.1814 22.9785 39.2218 22.1733 39.0827 21.2349C38.5784 18.912 37.2458 17.2555 35.7686 16.995Z"
            fill="#010305" />
        <path
            d="M39.1741 21.7933C38.4034 19.8296 36.6885 18.6133 35.3679 19.1928C34.0472 19.7723 33.5029 21.7072 34.1752 23.6535C34.5113 24.6266 35.1776 25.4549 36.0929 26.0225C37.46 25.7558 39.1282 24.933 39.3019 23.9482C39.3713 23.5543 39.4408 23.1603 39.4291 22.6506C39.3827 22.3378 39.2379 22.0076 39.1741 21.7933Z"
            fill="#010305" />
        <path
            d="M35.6012 20.4088C35.694 21.0344 35.277 21.6717 34.6514 21.7645C34.0258 21.8572 33.3885 21.4402 33.2958 20.8146C33.203 20.189 33.62 19.5517 34.2456 19.459C34.8712 19.3662 35.5085 19.7832 35.6012 20.4088Z"
            fill="white" />
        <path
            d="M17.743 20.608C18.243 20.308 18.843 20.108 19.443 20.108C19.943 20.008 20.343 20.108 20.443 19.908C20.443 19.808 20.443 19.608 20.343 19.608C20.143 19.408 19.943 19.308 19.743 19.208C19.343 19.108 18.943 19.008 18.543 19.008C18.043 19.008 17.443 19.208 17.043 19.408C16.243 19.808 15.643 20.508 15.343 21.308C15.243 21.508 15.243 21.808 15.243 22.008C15.243 22.108 15.343 22.208 15.443 22.308C15.843 22.508 16.543 21.308 17.743 20.608Z"
            fill="#1D1F20" />
        <path
            d="M34.4676 14.5527C35.0282 14.3924 35.6596 14.3545 36.2391 14.5098C36.748 14.5426 37.1085 14.7427 37.2568 14.5754C37.2827 14.4788 37.3345 14.2856 37.2379 14.2597C37.0964 14.0148 36.9291 13.8664 36.7618 13.7181C36.4013 13.518 36.0409 13.3178 35.6545 13.2143C35.1715 13.0849 34.5402 13.1228 34.1021 13.2125C33.2258 13.3918 32.4651 13.9126 31.9682 14.6077C31.8199 14.775 31.7422 15.0648 31.6905 15.258C31.6646 15.3546 31.7353 15.4771 31.806 15.5995C32.1406 15.8962 33.1274 14.9183 34.4676 14.5527Z"
            fill="#1D1F20" />
        <path
            d="M23.818 46.716C24.418 46.416 25.518 43.616 22.318 42.616C20.018 42.116 17.618 42.816 15.918 44.516C13.818 46.616 12.818 51.916 14.418 55.716C16.018 59.116 20.118 60.616 23.518 59.016L23.118 54.416"
            fill="#FBD54C" />
        <path
            d="M14.408 51.858C14.408 50.558 14.508 49.358 14.908 48.158C15.108 47.558 15.308 47.058 15.508 46.458C15.608 46.358 15.608 46.258 15.708 46.058C15.808 45.958 15.808 45.858 15.908 45.758C16.008 45.658 16.008 45.558 16.108 45.458C16.208 45.358 16.308 45.258 16.408 45.158L16.508 45.058L16.608 44.958C16.708 44.858 16.808 44.758 16.908 44.658C17.108 44.458 17.308 44.358 17.508 44.158C17.908 43.858 18.408 43.658 18.908 43.458C19.808 43.158 20.708 43.058 21.608 43.058C22.308 43.158 23.008 43.458 23.608 43.858C24.008 44.258 24.208 44.758 24.208 45.258C24.208 45.658 24.108 45.958 24.008 46.358C23.908 46.558 23.808 46.658 23.808 46.758C23.808 46.858 24.008 46.858 24.208 46.658C24.508 46.358 24.708 46.058 24.708 45.658C24.908 45.058 24.808 44.358 24.508 43.758C24.008 42.958 23.308 42.458 22.508 42.158C22.008 41.958 21.508 41.958 21.008 41.858C20.508 41.858 19.908 41.858 19.408 41.958C18.208 42.158 17.008 42.758 16.008 43.558C15.908 43.658 15.708 43.758 15.608 43.858V44.058L15.508 44.158L15.308 44.358L15.108 44.558C15.008 44.658 15.008 44.758 14.908 44.758C14.808 44.958 14.708 45.058 14.608 45.258C14.208 45.858 13.908 46.558 13.708 47.258C13.508 47.958 13.308 48.758 13.208 49.458C13.008 50.258 13.008 51.058 13.008 51.858C13.008 52.658 13.108 53.558 13.308 54.358C13.408 54.758 13.508 55.158 13.708 55.558C13.808 55.758 13.808 55.958 13.908 56.158L14.008 56.358L14.108 56.458L14.208 56.558C14.408 56.958 14.608 57.258 14.908 57.558C15.008 57.758 15.108 57.958 15.208 58.058C15.308 58.158 15.508 58.258 15.608 58.458C16.108 58.958 16.708 59.258 17.408 59.558C18.508 60.058 19.808 60.358 21.008 60.258C22.008 60.158 23.008 59.958 23.908 59.458L24.208 59.258V58.958C23.808 55.958 23.508 54.458 23.308 54.458C23.108 54.458 23.008 56.258 23.208 59.058L23.508 58.558C22.708 58.958 21.808 59.058 20.908 59.058C19.808 59.058 18.808 58.758 17.908 58.158C17.408 57.858 16.908 57.558 16.508 57.058C16.108 56.658 15.708 56.158 15.408 55.658C14.708 54.558 14.408 53.258 14.408 51.858Z"
            fill="#1D1F20" />
        <path d="M19.02 46.079C23.02 43.979 27.12 47.779 24.42 50.979Z" fill="#FBD54C" />
        <path
            d="M24.509 45.87C23.909 45.37 23.109 45.07 22.309 44.87C21.709 44.77 21.009 44.87 20.409 44.97C20.009 45.07 19.609 45.27 19.309 45.57C19.109 45.77 19.009 45.97 19.009 46.07C19.009 46.17 19.209 46.17 19.509 46.17C19.609 46.17 19.809 46.17 19.909 46.17C20.009 46.17 20.309 46.17 20.509 46.07C21.009 46.07 21.509 46.07 22.009 46.17C22.609 46.27 23.209 46.57 23.709 46.97C24.209 47.37 24.509 47.87 24.709 48.37C24.809 48.77 24.809 49.27 24.709 49.67C24.609 50.37 24.309 50.87 24.509 50.97C24.609 51.07 25.209 50.77 25.709 49.87C26.009 49.27 26.009 48.57 25.909 47.97C25.609 47.07 25.109 46.37 24.509 45.87Z"
            fill="#1D1F20" />
        <path d="M20.578 51.005C23.778 49.705 25.678 51.205 25.478 53.205C25.178 56.305 22.178 55.205 21.978 57.305"
            fill="#FBD54C" />
        <path
            d="M26.172 52.85C26.172 52.35 25.972 51.75 25.772 51.35C25.472 50.95 25.172 50.55 24.672 50.35C23.972 49.95 23.172 49.85 22.372 50.05C21.872 50.15 21.372 50.35 20.972 50.55C20.672 50.75 20.572 50.85 20.572 50.95C20.672 51.15 21.272 51.05 22.272 51.05C22.872 51.05 23.372 51.15 23.872 51.35C24.472 51.65 24.772 52.25 24.772 52.85C24.772 53.55 24.572 54.15 24.072 54.65C23.672 55.05 22.972 55.25 22.472 55.65C22.272 55.85 22.072 56.05 21.872 56.25C21.772 56.45 21.672 56.65 21.672 56.85C21.672 57.15 21.772 57.35 21.872 57.35C21.972 57.35 22.072 57.25 22.272 57.05C22.472 56.75 22.772 56.55 23.172 56.55C23.372 56.45 23.672 56.35 23.972 56.25C24.372 56.15 24.672 55.95 25.072 55.65C25.472 55.35 25.772 54.95 25.972 54.45C25.972 54.35 26.072 54.15 26.072 54.05C26.072 53.95 26.072 53.95 26.072 53.85V53.65V53.45V53.35V53.25L26.172 52.85Z"
            fill="#1D1F20" />
    </g>
    <defs>
        <clipPath id="clip0_101_3">
            <rect width="101.7" height="64.1" fill="white" />
        </clipPath>
    </defs>
</svg>