<?xml version="1.0" encoding="utf-8"?>
<svg xmlns="http://www.w3.org/2000/svg" viewBox="0 0 500 500" xmlns:bx="https://boxy-svg.com">
  <defs>
    <bx:grid x="0" y="0" width="7.037" height="7.037"/>
  </defs>
  <g>
    <title>background</title>
    <ellipse style="fill: rgb(255, 255, 255);" cx="249.815" cy="263.888" rx="214.63" ry="214.629"/>
  </g>
  <g id="svg2" transform="matrix(0.440321, 0.19047, -0.190474, 0.440322, -65.648843, -184.470691)" style="transform-origin: 403.666px 318.315px;">
    <title>heart-green</title>
    <path d="M 403.666 282.315 C 397.666 272.315 387.666 265.315 375.666 265.315 C 358.666 265.315 345.666 278.315 345.666 295.315 C 345.666 328.315 363.666 333.315 403.666 371.315 C 443.666 333.315 461.666 328.315 461.666 295.315 C 461.666 278.315 448.666 265.315 431.666 265.315 C 419.666 265.315 409.666 272.315 403.666 282.315 Z" id="path4" style="stroke-width: 1; fill: rgb(27, 150, 26);"/>
  </g>
  <g id="group-1" transform="matrix(0.391569, -0.078202, 0.078202, 0.39157, -194.477374, -204.061222)" style="transform-origin: 403.666px 318.315px;">
    <title>heart-blue</title>
    <path d="M 403.666 282.315 C 397.666 272.315 387.666 265.315 375.666 265.315 C 358.666 265.315 345.666 278.315 345.666 295.315 C 345.666 328.315 363.666 333.315 403.666 371.315 C 443.666 333.315 461.666 328.315 461.666 295.315 C 461.666 278.315 448.666 265.315 431.666 265.315 C 419.666 265.315 409.666 272.315 403.666 282.315 Z" id="path-1" style="stroke-width: 1; fill: rgb(55, 132, 214);"/>
  </g>
  <g id="group-2" transform="matrix(0.349645, -0.192847, 0.192849, 0.349646, -283.23383, -129.080294)" style="transform-origin: 403.666px 318.315px;">
    <title>heart-yellow</title>
    <path d="M 403.666 282.315 C 397.666 272.315 387.666 265.315 375.666 265.315 C 358.666 265.315 345.666 278.315 345.666 295.315 C 345.666 328.315 363.666 333.315 403.666 371.315 C 443.666 333.315 461.666 328.315 461.666 295.315 C 461.666 278.315 448.666 265.315 431.666 265.315 C 419.666 265.315 409.666 272.315 403.666 282.315 Z" id="path-2" style="stroke-width: 1; fill: rgb(236, 210, 72);"/>
  </g>
  <g id="group-3" transform="matrix(0.143967, 0.087959, -0.087961, 0.143967, -7.600103, -124.014704)" style="transform-origin: 403.666px 318.315px;">
    <title>heart-red</title>
    <path d="M 403.666 282.315 C 397.666 272.315 387.666 265.315 375.666 265.315 C 358.666 265.315 345.666 278.315 345.666 295.315 C 345.666 328.315 363.666 333.315 403.666 371.315 C 443.666 333.315 461.666 328.315 461.666 295.315 C 461.666 278.315 448.666 265.315 431.666 265.315 C 419.666 265.315 409.666 272.315 403.666 282.315 Z" id="path-3" style="stroke-width: 1; fill: rgb(222, 44, 34);"/>
  </g>
  <g>
    <title>hand-red</title>
    <path style="stroke-opacity: 0.31; stroke-width: 1; fill: rgb(222, 44, 34); pointer-events: none; transform-origin: 360.147px 343.084px;" d="M 394.04 425.1 L 364.934 287.36 C 364.934 287.36 369.725 280.656 370.035 276.649 C 370.482 270.875 368.379 260.018 368.379 260.018 L 373.768 239.738 C 373.768 239.738 373.707 236.796 371.705 236.029 C 369.126 235.043 367.589 237.845 367.615 237.849 L 362.935 253.531 C 362.935 253.531 361.662 257.695 360.108 257.364 C 358.736 257.072 358.147 252.503 358.147 252.503 L 359.228 227.841 C 359.228 227.841 358.623 225.239 356.23 225.347 C 353.46 225.473 352.966 226.874 352.966 226.874 L 352.21 250.872 C 352.21 250.872 352.014 253.984 351.066 253.99 C 350.12 253.997 349.641 251.009 349.641 251.009 L 345.158 222.108 C 345.158 222.108 344.707 219.855 341.32 220.533 C 338.558 221.086 338.472 224.099 338.472 224.099 L 341.469 252.454 C 341.469 252.454 341.356 255.311 340.666 255.476 C 339.869 255.666 338.788 252.946 338.788 252.946 L 333.012 233.137 C 333.012 233.137 331.835 228.199 328.27 229.24 C 325.71 229.988 326.977 237.131 326.977 237.131 L 332.789 262.833 C 332.789 262.833 334.979 273.609 332.718 271.704 C 330.319 269.68 325.974 261.469 322.401 259.5 C 319.667 257.992 316.044 258.985 315.535 261.294 C 315.324 262.257 323.86 271.722 323.86 271.722 C 326.517 275.152 327.147 278.716 331.083 285.39 C 334.234 290.729 341.741 293.956 341.741 293.956 L 368.208 443.942 C 378.516 438.298 385.595 431.025 394.04 425.1 Z"/>
  </g>
  <g>
    <title>hand-green</title>
    <path style="stroke-opacity: 0.31; fill: rgb(27, 150, 26);" d="M 253.263 478.432 L 262.606 242.365 C 262.606 242.365 254.767 234.334 253.518 229.002 C 251.719 221.325 252.3 206.272 252.3 206.272 L 240.84 180.088 C 240.84 180.088 240.31 176.115 242.848 174.669 C 246.118 172.806 248.767 176.259 248.731 176.269 L 258.285 196.412 C 258.285 196.412 260.861 201.752 262.882 200.985 C 264.669 200.307 264.514 194.036 264.514 194.036 L 257.948 161.06 C 257.948 161.06 258.221 157.431 261.468 157.08 C 265.22 156.674 266.176 158.459 266.176 158.459 L 272.168 190.608 C 272.168 190.608 273.077 194.756 274.353 194.568 C 275.629 194.38 275.657 190.257 275.657 190.257 L 275.702 150.425 C 275.702 150.425 275.84 147.296 280.538 147.508 C 284.371 147.681 285.113 151.718 285.113 151.718 L 286.956 190.51 C 286.956 190.51 287.699 194.333 288.662 194.412 C 289.777 194.503 290.667 190.619 290.667 190.619 L 294.337 162.753 C 294.337 162.753 294.899 155.861 299.915 156.525 C 303.513 157.001 303.29 166.877 303.29 166.877 L 300.796 202.682 C 300.796 202.682 300.078 217.645 302.726 214.61 C 305.537 211.389 309.684 199.433 314.086 196.042 C 317.454 193.447 322.538 194.031 323.702 197.036 C 324.186 198.286 314.655 212.798 314.655 212.798 C 311.791 217.966 311.681 222.896 307.765 232.695 C 304.631 240.535 295.195 246.438 295.195 246.438 L 295.489 473.753 C 282.749 477.325 264.901 478.117 253.263 478.432 Z"/>
  </g>
  <g>
    <title>hand-blue</title>
    <path style="stroke-opacity: 0.31; stroke-width: 1; fill: rgb(55, 132, 214);" d="M 169.977 463.581 L 185.222 266.366 C 185.222 266.366 178.487 259.465 177.413 254.884 C 175.867 248.286 176.367 235.352 176.367 235.352 L 166.519 212.853 C 166.519 212.853 166.064 209.439 168.245 208.196 C 171.054 206.596 173.331 209.563 173.3 209.572 L 181.509 226.88 C 181.509 226.88 183.723 231.469 185.46 230.809 C 186.995 230.227 186.862 224.838 186.862 224.838 L 181.22 196.502 C 181.22 196.502 181.455 193.384 184.245 193.083 C 187.469 192.734 188.29 194.267 188.29 194.267 L 193.439 221.893 C 193.439 221.893 194.22 225.457 195.317 225.295 C 196.413 225.134 196.437 221.591 196.437 221.591 L 196.475 187.364 C 196.475 187.364 196.594 184.676 200.631 184.858 C 203.925 185.006 204.562 188.476 204.562 188.476 L 206.146 221.808 C 206.146 221.808 206.785 225.094 207.612 225.162 C 208.57 225.239 209.335 221.902 209.335 221.902 L 212.488 197.957 C 212.488 197.957 212.971 192.035 217.281 192.605 C 220.373 193.015 220.181 201.501 220.181 201.501 L 218.038 232.267 C 218.038 232.267 217.421 245.125 219.697 242.517 C 222.112 239.749 225.675 229.475 229.458 226.562 C 232.353 224.332 236.721 224.834 237.72 227.416 C 238.136 228.49 229.947 240.96 229.947 240.96 C 227.486 245.401 227.392 249.637 224.026 258.057 C 221.334 264.794 213.225 269.865 213.225 269.865 L 216.737 476.005 C 199.591 473.338 183.466 468.672 169.977 463.581 Z"/>
  </g>
  <g>
    <title>hand-yellow</title>
    <path style="stroke-opacity: 0.31; stroke-width: 1; fill: rgb(236, 210, 72); pointer-events: none; transform-origin: 124.616px 379.475px;" d="M 137.567 447.939 L 148.716 327.222 C 148.716 327.222 155.527 322.322 157.137 318.558 C 159.456 313.136 160.975 301.977 160.975 301.977 L 172.803 284.178 C 172.803 284.178 173.706 281.321 172.025 279.927 C 169.859 278.133 167.461 280.334 167.486 280.346 L 157.845 293.942 C 157.845 293.942 155.256 297.541 153.866 296.714 C 152.638 295.984 153.564 291.385 153.564 291.385 L 162.667 267.951 C 162.667 267.951 162.934 265.244 160.59 264.566 C 157.879 263.782 156.944 264.971 156.944 264.971 L 148.371 287.871 C 148.371 287.871 147.165 290.808 146.249 290.504 C 145.335 290.201 145.848 287.162 145.848 287.162 L 150.97 257.823 C 150.97 257.823 151.273 255.501 147.785 255.049 C 144.94 254.68 143.871 257.557 143.871 257.557 L 137.494 285.885 C 137.494 285.885 136.451 288.605 135.732 288.538 C 134.9 288.461 134.747 285.485 134.747 285.485 L 135.651 264.49 C 135.651 264.49 136.13 259.342 132.35 259.182 C 129.638 259.066 128.525 266.369 128.525 266.369 L 125.728 293.058 C 125.728 293.058 124.319 304.169 122.762 301.592 C 121.109 298.856 119.603 289.515 116.8 286.449 C 114.655 284.1 110.836 283.874 109.591 285.936 C 109.073 286.794 114.212 298.714 114.212 298.714 C 115.653 302.891 115.096 306.534 116.711 314.258 C 118.004 320.437 124.19 326.004 124.19 326.004 L 107.342 427.279 C 116.534 434.52 125.806 441.439 137.567 447.939 Z"/>
  </g>
  <g>
    <title>Frame</title>
    <path d="M 478.515 249.812 C 478.515 374.328 379.007 475.602 255.175 478.451 C 371.235 475.607 464.445 380.632 464.445 263.888 C 464.445 145.352 368.352 49.259 249.815 49.259 C 131.278 49.259 35.185 145.352 35.185 263.888 C 35.185 380.652 128.427 475.64 244.515 478.453 C 120.654 475.638 21.111 374.349 21.111 249.812 C 21.111 123.504 123.504 21.111 249.813 21.111 C 376.122 21.111 478.515 123.504 478.515 249.812 Z" style="opacity: 1; fill: rgb(27, 150, 26);"/>
  </g>
</svg>
